<svg width="390" height="300" viewBox="0 0 390 300" fill="none" xmlns="http://www.w3.org/2000/svg">
<path d="M-53.6016 55.2643L19.9721 128.855C29.6297 138.515 41.0957 146.177 53.7151 151.406C66.3346 156.634 79.8603 159.325 93.5199 159.325H104.991C118.651 159.325 132.176 162.016 144.796 167.244C157.415 172.472 168.881 180.135 178.539 189.795L257.286 268.56C266.943 278.22 278.409 285.883 291.029 291.111C303.648 296.339 317.174 299.03 330.833 299.03H561.371C589.978 299.03 613.168 275.839 613.168 247.233C613.168 233.497 607.713 220.325 598.002 210.611L543.054 155.649C535.4 147.995 535.402 135.583 543.057 127.93C546.732 124.255 551.717 122.191 556.915 122.191C567.739 122.191 576.515 113.416 576.515 102.592C576.515 97.3947 574.45 92.41 570.776 88.7336L458.377 -23.6915C448.719 -33.3515 437.253 -41.0145 424.633 -46.2425C412.014 -51.4706 398.488 -54.1615 384.828 -54.1614H268.333C254.954 -54.1614 241.706 -56.797 229.346 -61.9177C216.986 -67.0384 205.755 -74.5437 196.296 -84.0052C186.836 -93.4671 175.605 -100.973 163.245 -106.094C150.884 -111.215 137.636 -113.85 124.256 -113.85L-9.42244 -113.85C-29.6348 -113.85 -46.02 -97.4649 -46.02 -77.2525C-46.02 -67.5478 -42.1654 -58.2404 -35.3039 -51.3773L-17.004 -33.0743C-6.90044 -22.9687 -6.90252 -6.58555 -17.0082 3.51805C-21.8604 8.36904 -28.4406 11.0943 -35.3018 11.0945C-49.5935 11.0945 -61.177 22.6801 -61.177 36.9697C-61.1771 43.8307 -58.4523 50.4109 -53.6016 55.2632V55.2643Z" fill="#2D314D"/>
</svg>
