<svg width="229" height="301" viewBox="0 0 229 301" fill="none" xmlns="http://www.w3.org/2000/svg">
<path fill-rule="evenodd" clip-rule="evenodd" d="M7.95835 56.3043L81.5321 129.895C91.1897 139.555 102.656 147.218 115.275 152.446C127.895 157.674 141.42 160.365 155.08 160.365H166.551C180.211 160.365 193.736 163.056 206.356 168.284C218.975 173.512 230.441 181.175 240.099 190.835L318.846 269.6C328.503 279.26 339.969 286.923 352.589 292.151C365.208 297.379 378.734 300.07 392.393 300.07H622.931C651.538 300.07 674.728 276.879 674.728 248.273C674.728 234.538 669.273 221.365 659.562 211.651L604.614 156.689C596.96 149.035 596.962 136.624 604.617 128.97C608.292 125.295 613.277 123.231 618.475 123.231C629.299 123.231 638.075 114.456 638.075 103.632C638.075 98.4347 636.01 93.45 632.336 89.7736L519.937 -22.6514C510.279 -32.3115 498.813 -39.9744 486.193 -45.2025C473.574 -50.4306 460.048 -53.1214 446.388 -53.1213H329.893C316.514 -53.1214 303.266 -55.757 290.906 -60.8777C278.546 -65.9983 267.315 -73.5037 257.856 -82.9652C248.396 -92.4271 237.165 -99.9328 224.805 -105.054C212.444 -110.174 199.195 -112.81 185.816 -112.81H52.1376C31.9252 -112.81 15.54 -96.4249 15.54 -76.2125C15.54 -66.5077 19.3946 -57.2004 26.2561 -50.3373L44.5549 -32.0343C54.6585 -21.9286 54.6564 -5.54551 44.5507 4.55809C39.6985 9.40908 33.1183 12.1343 26.2571 12.1345C11.9655 12.1345 0.381958 23.7201 0.381958 38.0097C0.381857 44.8707 3.10672 51.4509 7.95733 56.3033L7.95835 56.3043Z" fill="url(#paint0_linear_4_223)"/>
<defs>
<linearGradient id="paint0_linear_4_223" x1="0.382059" y1="14808.3" x2="60009.9" y2="41979.6" gradientUnits="userSpaceOnUse">
<stop stop-color="#33D35E"/>
<stop offset="1" stop-color="#2AB6D9"/>
</linearGradient>
</defs>
</svg>
