<svg width="555" height="355" viewBox="0 0 555 355" fill="none" xmlns="http://www.w3.org/2000/svg">
<path fill-rule="evenodd" clip-rule="evenodd" d="M11.0817 2.89427L134.281 126.082C151.487 143.286 174.821 152.95 199.152 152.95H264.009C288.34 152.95 311.675 162.615 328.88 179.819L476.626 327.553C493.83 344.757 517.164 354.422 541.494 354.424H898.246C939.498 354.424 972.94 320.983 972.94 279.73C972.94 269.921 971.008 260.208 967.254 251.146C963.5 242.083 957.997 233.849 951.061 226.913L871.801 147.658C860.761 136.62 860.76 118.722 871.799 107.681C874.424 105.056 877.54 102.974 880.97 101.553C884.4 100.133 888.076 99.4015 891.788 99.4015C907.4 99.4015 920.057 86.7453 920.057 71.1331C920.057 63.6357 917.079 56.4448 911.777 51.1438L732.567 -128.053C715.362 -145.257 692.027 -154.922 667.696 -154.922H452.608C428.277 -154.922 404.942 -164.587 387.737 -181.792L355.394 -214.132C338.189 -231.335 314.855 -241 290.524 -241H74.7846C45.6382 -241 22.0103 -217.372 22.0103 -188.226C22.0104 -181.295 23.3756 -174.432 26.0281 -168.029C28.6806 -161.626 32.5683 -155.808 37.4693 -150.908L63.856 -124.522C78.4306 -109.949 78.4315 -86.3193 63.8588 -71.7456C60.3934 -68.2799 56.2792 -65.5307 51.7513 -63.6551C47.2234 -61.7795 42.3703 -60.8141 37.4693 -60.8142C16.8588 -60.8142 0.150261 -44.1066 0.150261 -23.4961C0.150207 -18.5951 1.11556 -13.742 2.99118 -9.2141C4.8668 -4.68617 7.61595 -0.571121 11.0817 2.89427Z" fill="url(#paint0_linear_4_67)"/>
<defs>
<linearGradient id="paint0_linear_4_67" x1="0.150212" y1="21281.8" x2="86569.3" y2="60466.8" gradientUnits="userSpaceOnUse">
<stop stop-color="#33D35E"/>
<stop offset="1" stop-color="#2AB6D9"/>
</linearGradient>
</defs>
</svg>
