<svg width="682" height="597" viewBox="0 0 682 597" fill="none" xmlns="http://www.w3.org/2000/svg">
<path d="M11.4739 244.551L134.673 367.738C151.879 384.942 175.213 394.607 199.544 394.607H264.401C288.732 394.607 312.067 404.272 329.272 421.476L477.018 569.21C494.222 586.413 517.556 596.079 541.886 596.08H898.638C939.891 596.08 973.332 562.639 973.332 521.387C973.332 511.578 971.4 501.864 967.646 492.802C963.892 483.74 958.39 475.505 951.453 468.569L872.193 389.315C861.153 378.276 861.152 360.379 872.191 349.338C874.816 346.713 877.933 344.63 881.362 343.21C884.792 341.789 888.468 341.058 892.18 341.058C907.793 341.058 920.449 328.402 920.449 312.79C920.449 305.292 917.471 298.101 912.169 292.8L732.959 113.603C715.754 96.3993 692.42 86.7342 668.089 86.7341H453C428.669 86.734 405.335 77.0689 388.129 59.8648L355.786 27.5248C338.581 10.3213 315.247 0.65652 290.917 0.656433H75.1769C46.0305 0.656433 22.4025 24.2844 22.4025 53.4308C22.4026 60.3615 23.7679 67.2243 26.4203 73.6274C29.0728 80.0304 32.9605 85.8484 37.8615 90.7489L64.2482 117.135C78.8228 131.707 78.8237 155.337 64.251 169.911C60.7856 173.377 56.6714 176.126 52.1435 178.001C47.6156 179.877 42.7625 180.842 37.8615 180.842C17.251 180.842 0.54248 197.55 0.54248 218.16C0.542426 223.061 1.50777 227.914 3.38339 232.442C5.25901 236.97 8.00816 241.084 11.4739 244.55V244.551Z" fill="#2D314D"/>
</svg>
